<svg width="180" height="180" viewBox="0 0 180 180" fill="none" xmlns="http://www.w3.org/2000/svg">
  <defs>
    <linearGradient id="bg" x1="0" y1="0" x2="180" y2="180" gradientUnits="userSpaceOnUse">
      <stop stop-color="#10b981"/>
      <stop offset="1" stop-color="#047857"/>
    </linearGradient>
  </defs>
  <rect width="180" height="180" rx="40" fill="url(#bg)"/>
  <g transform="translate(30, 25) scale(3.75)">
    <path d="M16 4C11.58 4 8 7.58 8 12c0 2.9 1.52 5.45 3.8 6.9.34.22.5.6.5 1v1.6c0 .28.22.5.5.5h6.4c.28 0 .5-.22.5-.5v-1.6c0-.4.16-.78.5-1C22.48 17.45 24 14.9 24 12c0-4.42-3.58-8-8-8z" fill="white" opacity="0.2"/>
    <path d="M5 16h5.5l2-4.5 3 9 3-9 2 4.5H26" stroke="white" stroke-width="2" stroke-linecap="round" stroke-linejoin="round"/>
    <path d="M13 25h6M14 28h4" stroke="white" stroke-width="1.5" stroke-linecap="round"/>
  </g>
</svg>
