<svg width="32" height="32" viewBox="0 0 32 32" fill="none" xmlns="http://www.w3.org/2000/svg">
  <rect width="32" height="32" rx="8" fill="#059669"/>
  <path d="M16 3C11.03 3 7 7.03 7 12c0 3.2 1.67 6.01 4.19 7.61.37.24.61.65.61 1.09V22c0 .55.45 1 1 1h6.4c.55 0 1-.45 1-1v-1.3c0-.44.24-.85.61-1.09C23.33 18.01 25 15.2 25 12c0-4.97-4.03-9-9-9z" fill="white" opacity="0.25"/>
  <path d="M4 16h5l2.5-5 3 10 3-10 2.5 5H28" stroke="white" stroke-width="2.2" stroke-linecap="round" stroke-linejoin="round"/>
  <path d="M12.5 26h7M13.5 29h5" stroke="white" stroke-width="1.8" stroke-linecap="round"/>
</svg>
